<?xml version="1.0" encoding="iso-8859-1"?>
<!-- Uploaded to: SVG Repo, www.svgrepo.com, Generator: SVG Repo Mixer Tools -->
<svg height="800px" width="800px" version="1.1" id="Layer_1" xmlns="http://www.w3.org/2000/svg" xmlns:xlink="http://www.w3.org/1999/xlink" 
	 viewBox="0 0 320.192 320.192" xml:space="preserve">
<g>
	<g>
		<g>
			<path style="fill:#4EFFBB;" d="M286.667,99.275c-0.022-4.502-3.688-8.096-8.149-8.074l-22.957,0.103l-0.263-57.798
				c-0.022-4.502-3.647-8.096-8.149-8.074L93.023,26.134c-4.462,0.019-8.096,3.647-8.074,8.149l0.263,57.798L66.35,92.166
				c-4.462,0.022-8.096,3.647-8.074,8.149l0.692,152.101c0.019,4.462,3.688,8.096,8.149,8.074l18.859-0.085l0.235,51.713
				c0.022,4.462,3.688,8.096,8.149,8.074l154.128-0.702c4.502-0.022,8.096-3.688,8.074-8.149l-0.235-51.713l22.957-0.103
				c4.462-0.022,8.096-3.688,8.074-8.149L286.667,99.275z"/>
		</g>
		<g>
			<g id="XMLID_18_">
				<g>
					<g>
						<path style="fill:#222051;" d="M261.232,74.022v152.101c0,4.462-3.65,8.112-8.112,8.112h-22.957v51.713
							c0,4.462-3.609,8.112-8.112,8.112H67.92c-4.462,0-8.112-3.65-8.112-8.112v-51.713H40.946c-4.462,0-8.112-3.65-8.112-8.112
							V74.022c0-4.502,3.65-8.112,8.112-8.112h18.862V8.112C59.808,3.609,63.458,0,67.92,0h154.128c4.502,0,8.112,3.609,8.112,8.112
							V65.91h22.957C257.579,65.91,261.232,69.519,261.232,74.022z M245.005,218.011V82.134H49.058v135.877h10.75v-61.852
							c0-4.502,3.65-8.112,8.112-8.112h154.128c4.502,0,8.112,3.609,8.112,8.112v61.856h14.845V218.011z M213.936,277.839V164.27
							H76.032v113.569H213.936z M213.936,65.91V16.224H76.032V65.91H213.936z"/>
					</g>
					<g>
						<path style="fill:#302C58;" d="M49.058,82.134v135.877h10.75v-61.852c0-4.502,3.65-8.112,8.112-8.112h154.128
							c4.502,0,8.112,3.609,8.112,8.112v61.856h14.845V82.134H49.058z M75.383,115.922c-5.232,0-9.49-4.217-9.49-9.45
							c0-5.232,4.258-9.49,9.49-9.49s9.45,4.258,9.45,9.49C84.833,111.705,80.616,115.922,75.383,115.922z M105.803,115.922
							c-5.232,0-9.49-4.217-9.49-9.45c0-5.232,4.258-9.49,9.49-9.49c5.232,0,9.45,4.258,9.45,9.49
							C115.253,111.705,111.036,115.922,105.803,115.922z"/>
					</g>
				</g>
			</g>
		</g>
	</g>
</g>
</svg>